<svg width="1200" height="900" viewBox="0 0 1200 900" fill="none" xmlns="http://www.w3.org/2000/svg" role="img" aria-labelledby="title desc">
  <title id="title">Barranquilla city illustration</title>
  <desc id="desc">Warm Caribbean skyline with riverfront breeze lines and carnival color accents.</desc>
  <defs>
    <linearGradient id="sky-baq" x1="120" y1="80" x2="1020" y2="760" gradientUnits="userSpaceOnUse">
      <stop offset="0" stop-color="#FFE6A3"/>
      <stop offset="0.52" stop-color="#FFB86C"/>
      <stop offset="1" stop-color="#F26A4B"/>
    </linearGradient>
    <linearGradient id="water-baq" x1="210" y1="520" x2="1000" y2="860" gradientUnits="userSpaceOnUse">
      <stop offset="0" stop-color="#1B7286"/>
      <stop offset="1" stop-color="#0C3944"/>
    </linearGradient>
    <linearGradient id="tower-baq" x1="0" y1="300" x2="0" y2="740" gradientUnits="userSpaceOnUse">
      <stop offset="0" stop-color="#FFF2D0"/>
      <stop offset="1" stop-color="#D57A4D"/>
    </linearGradient>
  </defs>

  <rect width="1200" height="900" fill="url(#sky-baq)"/>
  <ellipse cx="930" cy="180" rx="106" ry="106" fill="#FFF2B0" opacity="0.85"/>

  <path d="M0 590C123 560 220 548 332 554C452 560 535 597 665 607C798 617 941 586 1200 520V900H0V590Z" fill="url(#water-baq)"/>
  <path d="M0 626C181 592 340 592 503 624C671 657 849 664 1200 606" stroke="#9CE7F0" stroke-width="10" stroke-linecap="round" opacity="0.45"/>
  <path d="M70 486C164 454 275 444 386 452C508 460 620 502 748 512C866 522 984 500 1118 450" stroke="#FFF7DA" stroke-width="12" stroke-linecap="round" opacity="0.5"/>

  <g opacity="0.95">
    <rect x="176" y="352" width="92" height="264" rx="14" fill="#734038"/>
    <rect x="286" y="286" width="108" height="330" rx="16" fill="url(#tower-baq)"/>
    <rect x="414" y="332" width="80" height="284" rx="14" fill="#8D4F42"/>
    <rect x="520" y="238" width="126" height="378" rx="18" fill="#F4C57B"/>
    <rect x="678" y="314" width="94" height="302" rx="14" fill="#925248"/>
    <rect x="792" y="264" width="116" height="352" rx="16" fill="#FFD38A"/>
    <rect x="936" y="336" width="78" height="280" rx="14" fill="#814741"/>
  </g>

  <path d="M165 664C267 612 378 600 507 614C637 628 771 670 965 656" stroke="#FFD86A" stroke-width="18" stroke-linecap="round"/>
  <path d="M192 702C270 654 372 646 482 664C599 683 715 723 869 717" stroke="#62D0E3" stroke-width="12" stroke-linecap="round" opacity="0.85"/>

  <g opacity="0.9">
    <circle cx="254" cy="708" r="16" fill="#FF4F6A"/>
    <circle cx="304" cy="730" r="12" fill="#FFD84D"/>
    <circle cx="354" cy="708" r="14" fill="#00C2A8"/>
    <circle cx="404" cy="730" r="12" fill="#7C4DFF"/>
  </g>

  <path d="M0 790C210 744 430 733 648 748C839 761 1018 796 1200 844V900H0V790Z" fill="#1D2834" opacity="0.22"/>
</svg>
