<svg xmlns="http://www.w3.org/2000/svg" viewBox="0 0 1600 900" role="img" aria-labelledby="title desc">
  <title id="title">Santa Marta hero art</title>
  <desc id="desc">Beachfront bay with mountain backdrop for Santa Marta.</desc>
  <defs>
    <linearGradient id="sky" x1="0" y1="0" x2="1" y2="1">
      <stop offset="0%" stop-color="#bde0fe"/>
      <stop offset="50%" stop-color="#89c2d9"/>
      <stop offset="100%" stop-color="#ee9b00"/>
    </linearGradient>
  </defs>
  <rect width="1600" height="900" fill="url(#sky)"/>
  <path d="M0 500 L260 300 L480 430 L740 230 L1040 470 L1270 260 L1600 420 L1600 900 L0 900 Z" fill="#355070" opacity="0.55"/>
  <rect y="610" width="1600" height="290" fill="#219ebc"/>
  <path d="M0 650 C220 620 420 700 650 670 C900 640 1160 705 1600 650" stroke="#fefae0" stroke-width="22" fill="none" stroke-linecap="round"/>
  <path d="M0 760 H1600" stroke="#e9d8a6" stroke-width="70"/>
  <rect x="1120" y="420" width="150" height="180" rx="14" fill="#1d3557"/><rect x="1300" y="390" width="110" height="210" rx="14" fill="#1d3557"/>
  <rect x="96" y="100" width="540" height="188" rx="28" fill="rgba(255,255,255,0.82)"/>
  <text x="134" y="176" font-size="34" font-family="Segoe UI, sans-serif" font-weight="700" fill="#1d3557" letter-spacing="6">CASACLARO</text>
  <text x="134" y="238" font-size="76" font-family="Georgia, serif" font-weight="700" fill="#1d3557">Santa Marta</text>
  <text x="134" y="282" font-size="28" font-family="Segoe UI, sans-serif" font-weight="700" fill="#ee9b00">BAY LIGHT, BEACH STAYS, AND SIERRA BACKDROP</text>
</svg>
