<svg xmlns="http://www.w3.org/2000/svg" viewBox="0 0 32 32" fill="none">
  <!-- Shield background -->
  <path d="M16 2L4 7v9c0 7 5.3 13.5 12 15 6.7-1.5 12-8 12-15V7L16 2z" fill="#0A1628"/>
  <!-- Shield border -->
  <path d="M16 2L4 7v9c0 7 5.3 13.5 12 15 6.7-1.5 12-8 12-15V7L16 2z" fill="none" stroke="#8A9BAD" stroke-width="1.2"/>
  <!-- Inner shield border -->
  <path d="M16 5L6.5 9v7c0 5.6 4.1 10.7 9.5 12 5.4-1.3 9.5-6.4 9.5-12V9L16 5z" fill="none" stroke="#5A7A9A" stroke-width="0.6" opacity="0.6"/>
  <!-- Mountain silhouette -->
  <path d="M7 20 L11 13 L14 17 L16 14 L19 17 L22 13 L25 20 Z" fill="#1A3A6A" opacity="0.9"/>
  <!-- Mountain snow caps -->
  <path d="M16 14 L17.2 16.2 L14.8 16.2 Z" fill="white" opacity="0.9"/>
  <path d="M22 13 L23.2 15.2 L20.8 15.2 Z" fill="white" opacity="0.7"/>
  <!-- Rising bar chart -->
  <rect x="19" y="14" width="2.2" height="6" rx="0.4" fill="#1E6FCC" opacity="0.9"/>
  <rect x="22" y="11" width="2.2" height="9" rx="0.4" fill="#2B8AE0" opacity="0.9"/>
  <!-- Green accent wave -->
  <path d="M7 21 Q10 19.5 13 21 Q16 22.5 19 21 Q22 19.5 25 21" stroke="#7FD416" stroke-width="1.2" stroke-linecap="round" fill="none"/>
  <!-- Green candlestick dots -->
  <rect x="8"  y="22" width="1.4" height="3" rx="0.3" fill="#5CB800" opacity="0.8"/>
  <rect x="10.5" y="21" width="1.4" height="4" rx="0.3" fill="#7FD416" opacity="0.8"/>
  <rect x="13" y="22.5" width="1.4" height="2.5" rx="0.3" fill="#5CB800" opacity="0.8"/>
</svg>
