<svg xmlns="http://www.w3.org/2000/svg" viewBox="0 0 40 40" fill="none">
  <!-- Shield background -->
  <path d="M20 3L5 9v11c0 8.5 6.5 16.2 15 18 8.5-1.8 15-9.5 15-18V9L20 3z" fill="#0A1628"/>
  <!-- Shield outer border -->
  <path d="M20 3L5 9v11c0 8.5 6.5 16.2 15 18 8.5-1.8 15-9.5 15-18V9L20 3z" fill="none" stroke="#8A9BAD" stroke-width="1.4"/>
  <!-- Shield inner border -->
  <path d="M20 6.5L8 11.5v8.5c0 6.8 5.1 12.8 12 14.5 6.9-1.7 12-7.7 12-14.5v-8.5L20 6.5z" fill="none" stroke="#5A7A9A" stroke-width="0.7" opacity="0.55"/>
  <!-- Mountain silhouette -->
  <path d="M8.5 26 L13.5 17 L17 21.5 L20 18 L23 21.5 L26.5 17 L31.5 26 Z" fill="#1A3A6A" opacity="0.9"/>
  <!-- Snow caps -->
  <path d="M20 18 L21.5 20.5 L18.5 20.5 Z" fill="white" opacity="0.9"/>
  <path d="M26.5 17 L28 19.5 L25 19.5 Z" fill="white" opacity="0.75"/>
  <!-- Bar chart -->
  <rect x="24" y="17.5" width="2.8" height="8.5" rx="0.5" fill="#1E6FCC" opacity="0.9"/>
  <rect x="28" y="14"   width="2.8" height="12"  rx="0.5" fill="#2B8AE0" opacity="0.9"/>
  <!-- Green wave -->
  <path d="M8.5 27.5 Q12 26 15.5 27.5 Q19 29 22.5 27.5 Q26 26 31.5 27.5" stroke="#7FD416" stroke-width="1.4" stroke-linecap="round" fill="none"/>
  <!-- Green micro-bars -->
  <rect x="9.5"  y="29" width="1.8" height="3.5" rx="0.4" fill="#5CB800" opacity="0.85"/>
  <rect x="12.5" y="28" width="1.8" height="4.5" rx="0.4" fill="#7FD416" opacity="0.85"/>
  <rect x="15.5" y="29.5" width="1.8" height="3"  rx="0.4" fill="#5CB800" opacity="0.85"/>
  <rect x="18.5" y="28.5" width="1.8" height="4"  rx="0.4" fill="#7FD416" opacity="0.85"/>
</svg>
