<svg width="1200" height="900" viewBox="0 0 1200 900" fill="none" xmlns="http://www.w3.org/2000/svg" role="img" aria-labelledby="title desc">
  <title id="title">Bucaramanga city illustration</title>
  <desc id="desc">Terraced canyon cityscape with gardens, sunlit towers, and a broad mountain horizon.</desc>
  <defs>
    <linearGradient id="sky-bga" x1="160" y1="90" x2="1030" y2="760" gradientUnits="userSpaceOnUse">
      <stop offset="0" stop-color="#E9F6FF"/>
      <stop offset="0.5" stop-color="#B7D9FF"/>
      <stop offset="1" stop-color="#6E9FCE"/>
    </linearGradient>
    <linearGradient id="ridge-bga" x1="140" y1="238" x2="968" y2="500" gradientUnits="userSpaceOnUse">
      <stop offset="0" stop-color="#6F8A6E"/>
      <stop offset="1" stop-color="#44614A"/>
    </linearGradient>
    <linearGradient id="tower-bga" x1="0" y1="250" x2="0" y2="700" gradientUnits="userSpaceOnUse">
      <stop offset="0" stop-color="#F7F3E3"/>
      <stop offset="1" stop-color="#C9B28A"/>
    </linearGradient>
  </defs>

  <rect width="1200" height="900" fill="url(#sky-bga)"/>
  <ellipse cx="890" cy="168" rx="98" ry="98" fill="#FFF4B8" opacity="0.88"/>

  <path d="M0 346C90 300 174 272 255 264C354 253 443 282 531 292C659 307 773 250 891 255C1001 260 1091 310 1200 370V900H0V346Z" fill="url(#ridge-bga)"/>
  <path d="M0 438C114 392 247 376 387 390C504 401 621 447 755 449C887 451 1027 407 1200 346V900H0V438Z" fill="#5D805D"/>

  <g opacity="0.96">
    <rect x="178" y="388" width="86" height="250" rx="14" fill="#8E6D53"/>
    <rect x="288" y="304" width="118" height="334" rx="16" fill="url(#tower-bga)"/>
    <rect x="438" y="346" width="84" height="292" rx="14" fill="#A88260"/>
    <rect x="548" y="272" width="124" height="366" rx="18" fill="#E6D1A4"/>
    <rect x="700" y="332" width="94" height="306" rx="14" fill="#8D6F59"/>
    <rect x="820" y="288" width="122" height="350" rx="16" fill="#F2DFB6"/>
    <rect x="970" y="370" width="82" height="268" rx="14" fill="#7D6252"/>
  </g>

  <path d="M86 620C229 589 355 589 494 620C612 647 734 661 916 642C1000 633 1075 615 1141 590" stroke="#EAF7D7" stroke-width="14" stroke-linecap="round" opacity="0.75"/>
  <path d="M124 678C256 648 396 648 527 680C642 708 776 722 934 705" stroke="#9AD36A" stroke-width="16" stroke-linecap="round"/>

  <g opacity="0.92">
    <circle cx="276" cy="690" r="28" fill="#6FC96B"/>
    <circle cx="340" cy="720" r="20" fill="#8ADE79"/>
    <circle cx="410" cy="694" r="24" fill="#60B85A"/>
    <circle cx="474" cy="722" r="18" fill="#9BE186"/>
    <circle cx="956" cy="690" r="28" fill="#78CC6B"/>
  </g>

  <path d="M0 792C212 752 414 742 645 756C860 770 1044 807 1200 846V900H0V792Z" fill="#26384A" opacity="0.16"/>
</svg>
