<svg xmlns="http://www.w3.org/2000/svg" viewBox="0 0 1600 900" role="img" aria-labelledby="title desc">
  <title id="title">Cali hero art</title>
  <desc id="desc">Tropical skyline with dancing river curves for Cali.</desc>
  <defs>
    <linearGradient id="sky" x1="0" y1="0" x2="1" y2="1">
      <stop offset="0%" stop-color="#ffcad4"/>
      <stop offset="50%" stop-color="#f28482"/>
      <stop offset="100%" stop-color="#84a59d"/>
    </linearGradient>
  </defs>
  <rect width="1600" height="900" fill="url(#sky)"/>
  <path d="M0 520 L220 360 L430 500 L660 280 L860 460 L1100 250 L1360 430 L1600 320 L1600 900 L0 900 Z" fill="#386641" opacity="0.3"/>
  <path d="M0 720 C220 640 460 770 740 690 C980 625 1260 780 1600 700" stroke="#ffd166" stroke-width="26" fill="none" stroke-linecap="round"/>
  <rect x="180" y="430" width="94" height="210" rx="12" fill="#4d194d"/><rect x="308" y="360" width="132" height="280" rx="12" fill="#4d194d"/><rect x="470" y="470" width="84" height="170" rx="12" fill="#4d194d"/><rect x="586" y="330" width="120" height="310" rx="12" fill="#4d194d"/><rect x="740" y="400" width="88" height="240" rx="12" fill="#4d194d"/><rect x="864" y="350" width="126" height="290" rx="12" fill="#4d194d"/>
  <circle cx="1320" cy="170" r="92" fill="#fff1e6" opacity="0.78"/>
  <rect x="96" y="100" width="470" height="188" rx="28" fill="rgba(255,255,255,0.8)"/>
  <text x="134" y="176" font-size="34" font-family="Segoe UI, sans-serif" font-weight="700" fill="#4d194d" letter-spacing="6">CASACLARO</text>
  <text x="134" y="238" font-size="76" font-family="Georgia, serif" font-weight="700" fill="#4d194d">Cali</text>
  <text x="134" y="282" font-size="28" font-family="Segoe UI, sans-serif" font-weight="700" fill="#386641">SALSA RHYTHM, VALLEY HEAT, AND URBAN GREEN</text>
</svg>
